<mxfile host="app.diagrams.net" modified="2024-03-19T20:10:04.880Z" agent="Mozilla/5.0 (Windows NT 10.0; Win64; x64) AppleWebKit/537.36 (KHTML, like Gecko) Chrome/122.0.0.0 Safari/537.36" etag="C-kU2cerme3Lb80MziS7" version="23.1.6" type="github">
  <diagram name="Page-1" id="UrOCTyopxDDdXjb9DQVV">
    <mxGraphModel dx="520" dy="698" grid="1" gridSize="10" guides="1" tooltips="1" connect="1" arrows="1" fold="1" page="1" pageScale="1" pageWidth="827" pageHeight="1169" math="0" shadow="0">
      <root>
        <mxCell id="0" />
        <mxCell id="1" parent="0" />
        <mxCell id="aUtGzininyjYJ_aRzWGZ-16" style="edgeStyle=orthogonalEdgeStyle;rounded=0;orthogonalLoop=1;jettySize=auto;html=1;" edge="1" parent="1" source="aUtGzininyjYJ_aRzWGZ-1">
          <mxGeometry relative="1" as="geometry">
            <mxPoint x="439" y="330" as="targetPoint" />
          </mxGeometry>
        </mxCell>
        <mxCell id="aUtGzininyjYJ_aRzWGZ-1" value="Windows 10&lt;br&gt;IP: DHCP&lt;br&gt;Splunk Universal Forwarder&lt;br&gt;Sysmon&lt;br&gt;Atomic Red Team" style="verticalLabelPosition=bottom;html=1;verticalAlign=top;align=center;strokeColor=none;fillColor=#00BEF2;shape=mxgraph.azure.computer;pointerEvents=1;" vertex="1" parent="1">
          <mxGeometry x="414" y="400" width="50" height="50" as="geometry" />
        </mxCell>
        <mxCell id="aUtGzininyjYJ_aRzWGZ-2" value="Splunk Server&lt;br&gt;IP: 192.168.10.10" style="image;points=[];aspect=fixed;html=1;align=center;shadow=0;dashed=0;image=img/lib/allied_telesis/computer_and_terminals/Server_Desktop.svg;" vertex="1" parent="1">
          <mxGeometry x="210" y="160" width="40" height="50.7" as="geometry" />
        </mxCell>
        <mxCell id="aUtGzininyjYJ_aRzWGZ-3" value="Active Directory&lt;br&gt;IP: 192.168.10.7&lt;br&gt;Splunk Universal Forwarder&lt;br&gt;Sysmon" style="image;points=[];aspect=fixed;html=1;align=center;shadow=0;dashed=0;image=img/lib/allied_telesis/computer_and_terminals/Server_Desktop.svg;" vertex="1" parent="1">
          <mxGeometry x="210" y="320" width="42.599999999999994" height="54" as="geometry" />
        </mxCell>
        <mxCell id="aUtGzininyjYJ_aRzWGZ-4" value="" style="sketch=0;points=[[0.015,0.015,0],[0.985,0.015,0],[0.985,0.985,0],[0.015,0.985,0],[0.25,0,0],[0.5,0,0],[0.75,0,0],[1,0.25,0],[1,0.5,0],[1,0.75,0],[0.75,1,0],[0.5,1,0],[0.25,1,0],[0,0.75,0],[0,0.5,0],[0,0.25,0]];verticalLabelPosition=bottom;html=1;verticalAlign=top;aspect=fixed;align=center;pointerEvents=1;shape=mxgraph.cisco19.rect;prIcon=workgroup_switch;fillColor=#FAFAFA;strokeColor=#6696AB;" vertex="1" parent="1">
          <mxGeometry x="414" y="270" width="50" height="50" as="geometry" />
        </mxCell>
        <mxCell id="aUtGzininyjYJ_aRzWGZ-10" style="rounded=0;orthogonalLoop=1;jettySize=auto;html=1;entryX=0.55;entryY=0.95;entryDx=0;entryDy=0;entryPerimeter=0;" edge="1" parent="1" source="aUtGzininyjYJ_aRzWGZ-5" target="aUtGzininyjYJ_aRzWGZ-6">
          <mxGeometry relative="1" as="geometry">
            <mxPoint x="439" y="90" as="targetPoint" />
          </mxGeometry>
        </mxCell>
        <mxCell id="aUtGzininyjYJ_aRzWGZ-5" value="" style="sketch=0;points=[[0.5,0,0],[1,0.5,0],[0.5,1,0],[0,0.5,0],[0.145,0.145,0],[0.8555,0.145,0],[0.855,0.8555,0],[0.145,0.855,0]];verticalLabelPosition=bottom;html=1;verticalAlign=top;aspect=fixed;align=center;pointerEvents=1;shape=mxgraph.cisco19.rect;prIcon=router;fillColor=#FAFAFA;strokeColor=#005073;" vertex="1" parent="1">
          <mxGeometry x="414" y="140" width="50" height="50" as="geometry" />
        </mxCell>
        <mxCell id="aUtGzininyjYJ_aRzWGZ-6" value="Internet" style="ellipse;shape=cloud;whiteSpace=wrap;html=1;" vertex="1" parent="1">
          <mxGeometry x="370" width="120" height="80" as="geometry" />
        </mxCell>
        <mxCell id="aUtGzininyjYJ_aRzWGZ-8" style="edgeStyle=orthogonalEdgeStyle;rounded=0;orthogonalLoop=1;jettySize=auto;html=1;" edge="1" parent="1" source="aUtGzininyjYJ_aRzWGZ-7">
          <mxGeometry relative="1" as="geometry">
            <mxPoint x="480" y="292.5" as="targetPoint" />
          </mxGeometry>
        </mxCell>
        <mxCell id="aUtGzininyjYJ_aRzWGZ-7" value="Kali Linux&lt;br&gt;IP: 192.168.10.250" style="verticalLabelPosition=bottom;html=1;verticalAlign=top;align=center;shape=mxgraph.azure.computer;pointerEvents=1;fillColor=#ffcd28;gradientColor=#ffa500;strokeColor=#d79b00;" vertex="1" parent="1">
          <mxGeometry x="580" y="270" width="50" height="45" as="geometry" />
        </mxCell>
        <mxCell id="aUtGzininyjYJ_aRzWGZ-9" style="edgeStyle=orthogonalEdgeStyle;rounded=0;orthogonalLoop=1;jettySize=auto;html=1;entryX=0.5;entryY=1;entryDx=0;entryDy=0;entryPerimeter=0;" edge="1" parent="1" source="aUtGzininyjYJ_aRzWGZ-4" target="aUtGzininyjYJ_aRzWGZ-5">
          <mxGeometry relative="1" as="geometry" />
        </mxCell>
        <mxCell id="aUtGzininyjYJ_aRzWGZ-11" value="Domain: Loan Net&lt;br&gt;Network: 192.168.10.0/24&lt;br&gt;Splunk Server: 192.168.10.10&lt;br&gt;Active Directory: 192.168.10.7&lt;br&gt;Attacker: 192.168.10.250" style="text;html=1;align=center;verticalAlign=middle;resizable=0;points=[];autosize=1;strokeColor=none;fillColor=none;" vertex="1" parent="1">
          <mxGeometry x="72.6" y="50" width="180" height="90" as="geometry" />
        </mxCell>
        <mxCell id="aUtGzininyjYJ_aRzWGZ-14" style="edgeStyle=orthogonalEdgeStyle;rounded=0;orthogonalLoop=1;jettySize=auto;html=1;entryX=0;entryY=0.5;entryDx=0;entryDy=0;entryPerimeter=0;" edge="1" parent="1" source="aUtGzininyjYJ_aRzWGZ-2" target="aUtGzininyjYJ_aRzWGZ-4">
          <mxGeometry relative="1" as="geometry" />
        </mxCell>
        <mxCell id="aUtGzininyjYJ_aRzWGZ-15" style="edgeStyle=orthogonalEdgeStyle;rounded=0;orthogonalLoop=1;jettySize=auto;html=1;entryX=0;entryY=0.5;entryDx=0;entryDy=0;entryPerimeter=0;" edge="1" parent="1" source="aUtGzininyjYJ_aRzWGZ-3" target="aUtGzininyjYJ_aRzWGZ-4">
          <mxGeometry relative="1" as="geometry" />
        </mxCell>
      </root>
    </mxGraphModel>
  </diagram>
</mxfile>
